<svg xmlns="http://www.w3.org/2000/svg" width="48.2" height="62.377" viewBox="0 0 48.2 62.377">
  <g id="Grupo_1153" data-name="Grupo 1153" transform="translate(-1223 -407.96)">
    <g id="Grupo_1152" data-name="Grupo 1152" transform="translate(1223 407.96)">
      <path id="Caminho_1979" data-name="Caminho 1979" d="M846.046,798.824a.992.992,0,0,0,0-.287l0-.039a.989.989,0,0,0-.134-.3l-.014-.039c-.008-.014-.025-.019-.036-.031a.86.86,0,0,0-.058-.083,1.027,1.027,0,0,0-.147-.117l-.042-.031a.94.94,0,0,0-.3-.117c-.028-.006-.058-.006-.086-.008a.828.828,0,0,0-.248,0c-.028,0-.056.006-.083.011l-.042,0c-12.618,3.645-21.582,8.619-26.644,14.784a.945.945,0,0,0-.031,1.161l1.331,1.794-2.272-.546a.954.954,0,0,0-1.036.437c-4.286,7.268-2.194,13.871.106,16.335-.315.752-.616,1.5-.894,2.233h-12.3a3.3,3.3,0,0,0-.944,6.463v1.259a1.734,1.734,0,0,1-1.732,1.732.946.946,0,0,0-.938.824l-1.618,12.682a2.831,2.831,0,0,0,2.813,3.194h22.8a2.839,2.839,0,0,0,2.812-3.194l-1.618-12.682a.949.949,0,0,0-.941-.824,1.736,1.736,0,0,1-1.732-1.732v-1.259a3.3,3.3,0,0,0-.944-6.463h-3.654c.184-.468.37-.933.568-1.406a5.594,5.594,0,0,0,.846.07c4.135,0,9.95-4.177,15.458-11.264a.944.944,0,0,0,.008-1.15l-1.682-2.231,2.935.677a.947.947,0,0,0,.991-.384,78.962,78.962,0,0,0,9.465-19.3c.011-.031.011-.058.02-.086S846.043,798.855,846.046,798.824ZM822.9,845.237l1.526,11.949a.936.936,0,0,1-.229.746.926.926,0,0,1-.707.318h-22.8a.941.941,0,0,1-.938-1.064l1.526-11.949a3.636,3.636,0,0,0,2.779-3.526v-1.105h16.071v1.105A3.633,3.633,0,0,0,822.9,845.237Zm-.415-7.936a1.42,1.42,0,0,1-1.418,1.417H803.111a1.419,1.419,0,0,1,0-2.838h17.961A1.42,1.42,0,0,1,822.49,837.3Zm-5-20.312,4.107.983a.943.943,0,0,0,.977-1.481l-2.431-3.275c4.127-4.726,10.8-8.711,19.877-11.9a76.751,76.751,0,0,0-22.863,28.488C815.6,827.5,814.517,822.5,817.491,816.989Zm17.853-.29-4.834-1.119a.96.96,0,0,0-1.005.407.938.938,0,0,0,.039,1.083l2.81,3.726c-5.645,7.082-10.677,10-13.57,9.955,4.3-9.488,11.715-20.047,24.411-29.49A76.4,76.4,0,0,1,835.344,816.7Z" transform="translate(-797.854 -797.766)" fill="#24d3fe"/>
    </g>
  </g>
</svg>
