<svg xmlns="http://www.w3.org/2000/svg" width="69.54" height="61.623" viewBox="0 0 69.54 61.623">
  <g id="Grupo_1166" data-name="Grupo 1166" transform="translate(-3603.65 -2292.63)">
    <path id="Caminho_79" data-name="Caminho 79" d="M3673.38,2369.546a9.042,9.042,0,1,0-9.043-9.043A9.053,9.053,0,0,0,3673.38,2369.546Zm0-15.98a6.937,6.937,0,1,1-6.937,6.937A6.945,6.945,0,0,1,3673.38,2353.566Z" transform="translate(-40.048 -38.823)" fill="#24d3fe"/>
    <path id="Caminho_80" data-name="Caminho 80" d="M3671.368,2425.02h-5.437l5.5-18.487a2.678,2.678,0,0,0-2.558-3.474h-21.149a2.675,2.675,0,0,0-2.543,1.837l-.8,2.4-5.948-3.107a1.053,1.053,0,0,0-.975,1.866l6.252,3.266-3.858,11.655h-11.441a1.046,1.046,0,0,0-.613.2,3.914,3.914,0,0,0-2.474-1.583l-6.291-.764,3.167-3.6a1.053,1.053,0,0,0-1.581-1.39l-3.909,4.447a1.057,1.057,0,0,0-.156.244l-1.39-.169a1.053,1.053,0,1,0-.254,2.09l10.152,1.234c.8.1,1.907,1.7,2.277,3.336h-17.607v-1.874a11.4,11.4,0,0,1,2.45-7.046l3.916-4.948a11.422,11.422,0,0,1,6.1-3.956l5.68-1.451a1.052,1.052,0,1,0-.521-2.039l-5.68,1.45a13.534,13.534,0,0,0-7.225,4.689l-3.916,4.948a13.516,13.516,0,0,0-2.905,8.353v1.874h-2.93a1.053,1.053,0,0,0,0,2.105h66.665a1.053,1.053,0,0,0,0-2.105Zm-42.456-1.937h11.708a1.053,1.053,0,0,0,1-.722l5.563-16.8a.572.572,0,0,1,.545-.393h21.149a.563.563,0,0,1,.462.234.569.569,0,0,1,.082.522l-5.686,19.1h-34.253A9,9,0,0,0,3628.912,2423.083Z" transform="translate(0 -72.873)" fill="#24d3fe"/>
    <path id="Caminho_81" data-name="Caminho 81" d="M3750.254,2306.566a2.655,2.655,0,0,0-3.691-.725l-.011.01-2.133,1.794-10.958,8.91a1.054,1.054,0,0,0-.337.49l-1.06,3.252a1.052,1.052,0,0,0,1,1.379,1.074,1.074,0,0,0,.122-.007l3.4-.4a1.049,1.049,0,0,0,.542-.229l10.961-8.912.006-.006.007-.005,2.14-1.8a2.243,2.243,0,0,0,.772-1.889A3.277,3.277,0,0,0,3750.254,2306.566Zm-14.218,12.652-1.461.17.455-1.4,9.906-8.054,1,1.227Zm12.857-10.514,0,0-1.328,1.116-1-1.227,1.332-1.12a1.192,1.192,0,0,1,1,1.228Z" transform="translate(-84.707 -8.404)" fill="#24d3fe"/>
    <path id="Caminho_82" data-name="Caminho 82" d="M3737.33,2292.63h-19.089a6.924,6.924,0,0,0-6.916,6.916v11.243a6.926,6.926,0,0,0,6.19,6.879v2.7a1.053,1.053,0,0,0,1.678.846l4.749-3.511h13.387a6.924,6.924,0,0,0,6.916-6.917v-11.243A6.924,6.924,0,0,0,3737.33,2292.63Zm4.811,18.159a4.817,4.817,0,0,1-4.811,4.811H3723.6a1.054,1.054,0,0,0-.626.206l-3.35,2.477v-1.63a1.052,1.052,0,0,0-1.052-1.052h-.327a4.817,4.817,0,0,1-4.811-4.811v-11.243a4.816,4.816,0,0,1,4.811-4.811h19.089a4.816,4.816,0,0,1,4.811,4.811Z" transform="translate(-71.056)" fill="#24d3fe"/>
  </g>
</svg>
