<svg id="Grupo_1113" data-name="Grupo 1113" xmlns="http://www.w3.org/2000/svg" width="78.125" height="62" viewBox="0 0 78.125 62">
  <g id="Grupo_13" data-name="Grupo 13">
    <path id="Caminho_33" data-name="Caminho 33" d="M2253.346,1816.259h-63.679a1.211,1.211,0,0,0-1.211,1.211v47.554a1.211,1.211,0,0,0,1.211,1.211h63.679a1.211,1.211,0,0,0,1.211-1.211V1817.47A1.211,1.211,0,0,0,2253.346,1816.259Zm-1.211,47.554h-61.257v-45.132h61.257Z" transform="translate(-2188.456 -1804.235)" fill="#24d3fe"/>
    <path id="Caminho_34" data-name="Caminho 34" d="M2207,1846.626h50.165a1.211,1.211,0,0,0,0-2.422H2207a1.211,1.211,0,0,0,0,2.422Z" transform="translate(-2199.189 -1821.536)" fill="#24d3fe"/>
    <path id="Caminho_35" data-name="Caminho 35" d="M2208.343,1832.552a1.393,1.393,0,1,0-1.393-1.393A1.393,1.393,0,0,0,2208.343,1832.552Z" transform="translate(-2199.906 -1812.598)" fill="#24d3fe"/>
    <circle id="Elipse_2" data-name="Elipse 2" cx="1.393" cy="1.393" r="1.393" transform="translate(12.316 17.268)" fill="#24d3fe"/>
    <circle id="Elipse_3" data-name="Elipse 3" cx="1.393" cy="1.393" r="1.393" transform="translate(17.589 17.367)" fill="#24d3fe"/>
    <path id="Caminho_36" data-name="Caminho 36" d="M2207.505,1870.527h3.567a1.211,1.211,0,0,0,0-2.422h-3.567a1.211,1.211,0,1,0,0,2.422Z" transform="translate(-2199.5 -1836.334)" fill="#24d3fe"/>
    <path id="Caminho_37" data-name="Caminho 37" d="M2248.541,1868.1h-8.778a1.211,1.211,0,1,0,0,2.422h8.778a1.211,1.211,0,0,0,0-2.422Z" transform="translate(-2219.47 -1836.334)" fill="#24d3fe"/>
    <path id="Caminho_38" data-name="Caminho 38" d="M2227.184,1869.989a1.163,1.163,0,0,0,.15.184,1.226,1.226,0,0,0,.856.355,1.153,1.153,0,0,0,.237-.024,1.216,1.216,0,0,0,.226-.069,1.251,1.251,0,0,0,.21-.112,1.2,1.2,0,0,0,.446-.544,1.239,1.239,0,0,0,.069-.226,1.246,1.246,0,0,0,0-.474,1.235,1.235,0,0,0-.069-.226,1.263,1.263,0,0,0-.112-.21,1.168,1.168,0,0,0-.334-.334,1.319,1.319,0,0,0-.21-.111,1.2,1.2,0,0,0-1.319.261,1.184,1.184,0,0,0-.15.184,1.244,1.244,0,0,0-.181.436,1.16,1.16,0,0,0,0,.474,1.239,1.239,0,0,0,.069.226A1.261,1.261,0,0,0,2227.184,1869.989Z" transform="translate(-2212.306 -1836.334)" fill="#24d3fe"/>
    <path id="Caminho_39" data-name="Caminho 39" d="M2207.505,1887.229h10.211a1.211,1.211,0,0,0,0-2.422h-10.211a1.211,1.211,0,1,0,0,2.422Z" transform="translate(-2199.5 -1846.674)" fill="#24d3fe"/>
    <path id="Caminho_40" data-name="Caminho 40" d="M2255.861,1886.017a1.211,1.211,0,0,0,1.211,1.212h10.708a1.211,1.211,0,1,0,0-2.422h-10.708A1.211,1.211,0,0,0,2255.861,1886.017Z" transform="translate(-2230.187 -1846.674)" fill="#24d3fe"/>
    <path id="Caminho_41" data-name="Caminho 41" d="M2245.079,1884.806a1.211,1.211,0,1,0,0,2.422h.161a1.211,1.211,0,1,0,0-2.422Z" transform="translate(-2222.762 -1846.674)" fill="#24d3fe"/>
    <path id="Caminho_42" data-name="Caminho 42" d="M2297.771,1884.806h-1.608a1.211,1.211,0,1,0,0,2.422h1.608a1.211,1.211,0,0,0,0-2.422Z" transform="translate(-2254.388 -1846.674)" fill="#24d3fe"/>
    <path id="Caminho_43" data-name="Caminho 43" d="M2207.505,1903.928h18.412a1.211,1.211,0,0,0,0-2.423h-18.412a1.211,1.211,0,1,0,0,2.423Z" transform="translate(-2199.5 -1857.012)" fill="#24d3fe"/>
    <path id="Caminho_44" data-name="Caminho 44" d="M2289.065,1901.506h-6.834a1.211,1.211,0,0,0,0,2.423h6.834a1.211,1.211,0,0,0,0-2.423Z" transform="translate(-2245.763 -1857.012)" fill="#24d3fe"/>
    <path id="Caminho_45" data-name="Caminho 45" d="M2313.371,1901.506h-2.01a1.211,1.211,0,1,0,0,2.423h2.01a1.211,1.211,0,1,0,0-2.423Z" transform="translate(-2263.798 -1857.012)" fill="#24d3fe"/>
    <path id="Caminho_46" data-name="Caminho 46" d="M2268.752,1901.506h-1.126a1.211,1.211,0,0,0,0,2.423h1.126a1.211,1.211,0,0,0,0-2.423Z" transform="translate(-2236.721 -1857.012)" fill="#24d3fe"/>
    <path id="Caminho_47" data-name="Caminho 47" d="M2213.759,1918.207h-6.253a1.211,1.211,0,1,0,0,2.422h6.253a1.211,1.211,0,0,0,0-2.422Z" transform="translate(-2199.5 -1867.352)" fill="#24d3fe"/>
    <path id="Caminho_48" data-name="Caminho 48" d="M2258.667,1918.207h-6.834a1.211,1.211,0,1,0,0,2.422h6.834a1.211,1.211,0,1,0,0-2.422Z" transform="translate(-2226.944 -1867.352)" fill="#24d3fe"/>
    <path id="Caminho_49" data-name="Caminho 49" d="M2237.339,1918.207h-1.125a1.211,1.211,0,0,0,0,2.422h1.125a1.211,1.211,0,0,0,0-2.422Z" transform="translate(-2217.273 -1867.352)" fill="#24d3fe"/>
    <path id="Caminho_50" data-name="Caminho 50" d="M2269.05,1800.152h-63.679a1.211,1.211,0,0,0,0,2.422h62.468v46.343a1.211,1.211,0,0,0,2.422,0v-47.554A1.211,1.211,0,0,0,2269.05,1800.152Z" transform="translate(-2198.178 -1794.264)" fill="#24d3fe"/>
    <path id="Caminho_51" data-name="Caminho 51" d="M2284.913,1784.692h-63.679a1.211,1.211,0,0,0,0,2.422H2283.7v46.343a1.211,1.211,0,1,0,2.422,0V1785.9A1.211,1.211,0,0,0,2284.913,1784.692Z" transform="translate(-2207.999 -1784.692)" fill="#24d3fe"/>
  </g>
</svg>
