<svg id="Grupo_1113" data-name="Grupo 1113" xmlns="http://www.w3.org/2000/svg" width="67.657" height="65.975" viewBox="0 0 67.657 65.975">
  <path id="Caminho_52" data-name="Caminho 52" d="M347.505,1800.381a7.04,7.04,0,1,0-4.98-2.059A7.022,7.022,0,0,0,347.505,1800.381Zm-3.438-10.478a4.863,4.863,0,1,1,0,6.877A4.848,4.848,0,0,1,344.067,1789.9Z" transform="translate(-294.639 -1780.295)" fill="#24d3fe"/>
  <path id="Caminho_53" data-name="Caminho 53" d="M240.668,1809.881l15.372-15.371a13.082,13.082,0,1,0-9.989-9.989l-36.129,36.129a1.078,1.078,0,0,0-.4.661l-3.545,11.918a1.09,1.09,0,0,0,1.356,1.356l12.025-3.577a1.089,1.089,0,0,0,.46-.274l6.762-6.762,9.476,9.476a1.09,1.09,0,0,0,1.542,0l4.013-4.013a1.09,1.09,0,0,0,0-1.542l-9.477-9.476,2.981-2.981,9.476,9.476a1.09,1.09,0,0,0,1.542,0l4.013-4.013a1.09,1.09,0,0,0,0-1.542Zm-23.187,13.192.386,6.1-6.709,2a1.124,1.124,0,0,0-.083-.1l-1.584-1.584a1.106,1.106,0,0,0-.1-.083l2.007-6.748Zm-8.8,8.691.11.11-.156.047Zm36.675-9.165-9.476-9.476a1.091,1.091,0,0,0-1.542,0l-4.522,4.522a1.09,1.09,0,0,0,0,1.542l9.476,9.476-2.471,2.471-9.476-9.476a1.09,1.09,0,0,0-1.542,0l-5.861,5.86-.319-5.045,31.468-31.469a1.09,1.09,0,1,0-1.542-1.542l-31.466,31.466-5.018-.346,34.954-34.955a1.09,1.09,0,0,0,.282-1.054,10.874,10.874,0,1,1,7.678,7.678,1.091,1.091,0,0,0-1.054.282l-16.575,16.575a1.09,1.09,0,0,0,0,1.542l9.476,9.476Z" transform="translate(-205.931 -1768.67)" fill="#24d3fe"/>
  <path id="Caminho_54" data-name="Caminho 54" d="M221.4,1799.333a2.805,2.805,0,1,0-2.805-2.805A2.808,2.808,0,0,0,221.4,1799.333Zm0-3.43a.625.625,0,1,1-.625.625A.626.626,0,0,1,221.4,1795.9Z" transform="translate(-214.283 -1785.189)" fill="#24d3fe"/>
  <path id="Caminho_55" data-name="Caminho 55" d="M228.763,1853.328a2.805,2.805,0,1,0,2.805,2.805A2.809,2.809,0,0,0,228.763,1853.328Zm0,3.43a.625.625,0,1,1,.625-.625A.626.626,0,0,1,228.763,1856.758Z" transform="translate(-219.136 -1824.491)" fill="#24d3fe"/>
  <path id="Caminho_56" data-name="Caminho 56" d="M261.986,1825.41h2.18a1.09,1.09,0,1,0,0-2.18h-2.18a1.09,1.09,0,1,0,0,2.18Z" transform="translate(-242.173 -1804.645)" fill="#24d3fe"/>
  <path id="Caminho_57" data-name="Caminho 57" d="M238.943,1825.41h2.035a1.09,1.09,0,0,0,0-2.18h-2.035a1.09,1.09,0,1,0,0,2.18Z" transform="translate(-226.979 -1804.645)" fill="#24d3fe"/>
  <path id="Caminho_58" data-name="Caminho 58" d="M253.238,1813.15a1.09,1.09,0,0,0,1.09-1.09v-2.035a1.09,1.09,0,0,0-2.18,0v2.035A1.09,1.09,0,0,0,253.238,1813.15Z" transform="translate(-236.405 -1795.219)" fill="#24d3fe"/>
  <path id="Caminho_59" data-name="Caminho 59" d="M253.238,1836.193a1.09,1.09,0,0,0,1.09-1.09v-2.035a1.09,1.09,0,0,0-2.18,0v2.035A1.09,1.09,0,0,0,253.238,1836.193Z" transform="translate(-236.405 -1810.413)" fill="#24d3fe"/>
  <path id="Caminho_60" data-name="Caminho 60" d="M355.7,1932.241a2.805,2.805,0,1,0,2.805,2.805A2.808,2.808,0,0,0,355.7,1932.241Zm0,3.43a.625.625,0,1,1,.625-.625A.626.626,0,0,1,355.7,1935.671Z" transform="translate(-302.836 -1876.524)" fill="#24d3fe"/>
  <path id="Caminho_61" data-name="Caminho 61" d="M390.888,1945.886a2.805,2.805,0,1,0,2.805,2.805A2.808,2.808,0,0,0,390.888,1945.886Zm0,3.43a.625.625,0,1,1,.625-.625A.626.626,0,0,1,390.888,1949.316Z" transform="translate(-326.036 -1885.521)" fill="#24d3fe"/>
  <path id="Caminho_62" data-name="Caminho 62" d="M389.622,1907.34a1.09,1.09,0,0,0,0-2.18h-2.18a1.09,1.09,0,0,0,0,2.18Z" transform="translate(-324.895 -1858.667)" fill="#24d3fe"/>
  <path id="Caminho_63" data-name="Caminho 63" d="M366.434,1905.16H364.4a1.09,1.09,0,0,0,0,2.18h2.035a1.09,1.09,0,1,0,0-2.18Z" transform="translate(-309.701 -1858.667)" fill="#24d3fe"/>
  <path id="Caminho_64" data-name="Caminho 64" d="M378.694,1890.865a1.09,1.09,0,0,0-1.09,1.09v2.035a1.09,1.09,0,1,0,2.18,0v-2.035A1.09,1.09,0,0,0,378.694,1890.865Z" transform="translate(-319.127 -1849.242)" fill="#24d3fe"/>
  <path id="Caminho_65" data-name="Caminho 65" d="M378.694,1913.908a1.09,1.09,0,0,0-1.09,1.09v2.18a1.09,1.09,0,1,0,2.18,0V1915A1.09,1.09,0,0,0,378.694,1913.908Z" transform="translate(-319.127 -1864.435)" fill="#24d3fe"/>
</svg>
